<svg xmlns="http://www.w3.org/2000/svg" xmlns:xlink="http://www.w3.org/1999/xlink" width="672" height="211pt" viewBox="0 0 504 211"><g id="graph0" class="graph" transform="scale(1 1) rotate(0) translate(4 207)"><title>dependencies</title><polygon fill="#fff" stroke="transparent" points="-4 4 -4 -207 500 -207 500 4 -4 4"/><text x="227.009" y="-42.4" fill="#000" font-family="sans-serif" font-size="14" font-weight="bold" text-anchor="start">Legend</text><polygon fill="#ffffb3" stroke="transparent" points="14 -10 14 -30 34 -30 34 -10 14 -10"/><text x="37.629" y="-15.4" fill="#000" font-family="sans-serif" font-size="14" text-anchor="start">Declarations</text><polygon fill="#8dd3c7" stroke="transparent" points="127 -10 127 -30 147 -30 147 -10 127 -10"/><text x="150.725" y="-15.4" fill="#000" font-family="sans-serif" font-size="14" text-anchor="start">Module</text><polygon fill="#80b1d3" stroke="transparent" points="213 -10 213 -30 233 -30 233 -10 213 -10"/><text x="236.781" y="-15.4" fill="#000" font-family="sans-serif" font-size="14" text-anchor="start">Bootstrap</text><polygon fill="#fdb462" stroke="transparent" points="310 -10 310 -30 330 -30 330 -10 310 -10"/><text x="333.673" y="-15.4" fill="#000" font-family="sans-serif" font-size="14" text-anchor="start">Providers</text><polygon fill="#fb8072" stroke="transparent" points="406 -10 406 -30 426 -30 426 -10 406 -10"/><text x="429.726" y="-15.4" fill="#000" font-family="sans-serif" font-size="14" text-anchor="start">Exports</text><g id="clust1" class="cluster"><title>cluster_AppModule</title><polygon fill="none" stroke="#000" stroke-dasharray="1 5" points="120 -70 120 -195 376 -195 376 -70 120 -70"/></g><g id="clust3" class="cluster"><title>cluster_AppModule_imports</title><polygon fill="none" stroke="#000" points="128 -78 128 -130 368 -130 368 -78 128 -78"/></g><g id="node1" class="node"><title>MessagesModule</title><polygon fill="#8dd3c7" stroke="#000" points="359.972 -122 356.972 -126 335.972 -126 332.972 -122 246.028 -122 246.028 -86 359.972 -86 359.972 -122"/><text x="303" y="-99.8" fill="#000" font-family="Times,serif" font-size="14" text-anchor="middle">MessagesModule</text></g><g id="node3" class="node"><title>AppModule</title><polygon fill="#8dd3c7" stroke="#000" points="283.657 -187 280.657 -191 259.657 -191 256.657 -187 200.343 -187 200.343 -151 283.657 -151 283.657 -187"/><text x="242" y="-164.8" fill="#000" font-family="Times,serif" font-size="14" text-anchor="middle">AppModule</text></g><g id="edge1" class="edge"><title>MessagesModule-&gt;AppModule</title><path fill="none" stroke="#000" d="M264.9211,-122.1061C264.9211,-122.1061 264.9211,-140.991 264.9211,-140.991"/><polygon fill="#000" stroke="#000" points="261.421 -140.991 264.921 -150.991 268.421 -140.991 261.421 -140.991"/></g><g id="node2" class="node"><title>UsersModule</title><polygon fill="#8dd3c7" stroke="#000" points="227.922 -122 224.922 -126 203.922 -126 200.922 -122 136.078 -122 136.078 -86 227.922 -86 227.922 -122"/><text x="182" y="-99.8" fill="#000" font-family="Times,serif" font-size="14" text-anchor="middle">UsersModule</text></g><g id="edge2" class="edge"><title>UsersModule-&gt;AppModule</title><path fill="none" stroke="#000" d="M213.9411,-122.1061C213.9411,-122.1061 213.9411,-140.991 213.9411,-140.991"/><polygon fill="#000" stroke="#000" points="210.441 -140.991 213.941 -150.991 217.441 -140.991 210.441 -140.991"/></g></g></svg>