<svg xmlns="http://www.w3.org/2000/svg" xmlns:xlink="http://www.w3.org/1999/xlink" width="672" height="211pt" viewBox="0 0 504 211"><g id="graph0" class="graph" transform="scale(1 1) rotate(0) translate(4 207)"><title>dependencies</title><polygon fill="#fff" stroke="transparent" points="-4 4 -4 -207 500 -207 500 4 -4 4"/><text x="227.009" y="-42.4" fill="#000" font-family="sans-serif" font-size="14" font-weight="bold" text-anchor="start">Legend</text><polygon fill="#ffffb3" stroke="transparent" points="14 -10 14 -30 34 -30 34 -10 14 -10"/><text x="37.629" y="-15.4" fill="#000" font-family="sans-serif" font-size="14" text-anchor="start">Declarations</text><polygon fill="#8dd3c7" stroke="transparent" points="127 -10 127 -30 147 -30 147 -10 127 -10"/><text x="150.725" y="-15.4" fill="#000" font-family="sans-serif" font-size="14" text-anchor="start">Module</text><polygon fill="#80b1d3" stroke="transparent" points="213 -10 213 -30 233 -30 233 -10 213 -10"/><text x="236.781" y="-15.4" fill="#000" font-family="sans-serif" font-size="14" text-anchor="start">Bootstrap</text><polygon fill="#fdb462" stroke="transparent" points="310 -10 310 -30 330 -30 330 -10 310 -10"/><text x="333.673" y="-15.4" fill="#000" font-family="sans-serif" font-size="14" text-anchor="start">Providers</text><polygon fill="#fb8072" stroke="transparent" points="406 -10 406 -30 426 -30 426 -10 406 -10"/><text x="429.726" y="-15.4" fill="#000" font-family="sans-serif" font-size="14" text-anchor="start">Exports</text><g id="clust1" class="cluster"><title>cluster_MessagesModule</title><polygon fill="none" stroke="#000" stroke-dasharray="1 5" points="46 -70 46 -195 450 -195 450 -70 46 -70"/></g><g id="clust3" class="cluster"><title>cluster_MessagesModule_imports</title><polygon fill="none" stroke="#000" points="234 -78 234 -130 442 -130 442 -78 234 -78"/></g><g id="clust6" class="cluster"><title>cluster_MessagesModule_providers</title><polygon fill="none" stroke="#000" points="54 -78 54 -130 226 -130 226 -78 54 -78"/></g><g id="node1" class="node"><title>IpfsModule</title><polygon fill="#8dd3c7" stroke="#000" points="433.816 -122 430.816 -126 409.816 -126 406.816 -122 352.184 -122 352.184 -86 433.816 -86 433.816 -122"/><text x="393" y="-99.8" fill="#000" font-family="Times,serif" font-size="14" text-anchor="middle">IpfsModule</text></g><g id="node3" class="node"><title>MessagesModule</title><polygon fill="#8dd3c7" stroke="#000" points="344.972 -187 341.972 -191 320.972 -191 317.972 -187 231.028 -187 231.028 -151 344.972 -151 344.972 -187"/><text x="288" y="-164.8" fill="#000" font-family="Times,serif" font-size="14" text-anchor="middle">MessagesModule</text></g><g id="edge1" class="edge"><title>IpfsModule-&gt;MessagesModule</title><path fill="none" stroke="#000" d="M352.0911,-104C344.9391,-104 339.7378,-104 339.7378,-104 339.7378,-104 339.7378,-140.8939 339.7378,-140.8939"/><polygon fill="#000" stroke="#000" points="336.238 -140.894 339.738 -150.894 343.238 -140.894 336.238 -140.894"/></g><g id="node2" class="node"><title>Web3Module</title><polygon fill="#8dd3c7" stroke="#000" points="334.479 -122 331.479 -126 310.479 -126 307.479 -122 241.521 -122 241.521 -86 334.479 -86 334.479 -122"/><text x="288" y="-99.8" fill="#000" font-family="Times,serif" font-size="14" text-anchor="middle">Web3Module</text></g><g id="edge2" class="edge"><title>Web3Module-&gt;MessagesModule</title><path fill="none" stroke="#000" d="M288,-122.1061C288,-122.1061 288,-140.991 288,-140.991"/><polygon fill="#000" stroke="#000" points="284.5 -140.991 288 -150.991 291.5 -140.991 284.5 -140.991"/></g><g id="node4" class="node"><title>MessagesService</title><ellipse cx="140" cy="-104" fill="#fdb462" stroke="#000" rx="77.563" ry="18"/><text x="140" y="-99.8" fill="#000" font-family="Times,serif" font-size="14" text-anchor="middle">MessagesService</text></g><g id="edge3" class="edge"><title>MessagesService-&gt;MessagesModule</title><path fill="none" stroke="#000" d="M217.7019,-104C228.6478,-104 236.2623,-104 236.2623,-104 236.2623,-104 236.2623,-140.8939 236.2623,-140.8939"/><polygon fill="#000" stroke="#000" points="232.762 -140.894 236.262 -150.894 239.762 -140.894 232.762 -140.894"/></g></g></svg>