<svg xmlns="http://www.w3.org/2000/svg" xmlns:xlink="http://www.w3.org/1999/xlink" width="1324" height="355pt" viewBox="0 0 993 355"><g id="graph0" class="graph" transform="scale(1 1) rotate(0) translate(4 351)"><title>dependencies</title><polygon fill="#fff" stroke="transparent" points="-4 4 -4 -351 989 -351 989 4 -4 4"/><text x="471.509" y="-42.4" fill="#000" font-family="sans-serif" font-size="14" font-weight="bold" text-anchor="start">Legend</text><polygon fill="#ffffb3" stroke="transparent" points="258.5 -10 258.5 -30 278.5 -30 278.5 -10 258.5 -10"/><text x="282.129" y="-15.4" fill="#000" font-family="sans-serif" font-size="14" text-anchor="start">Declarations</text><polygon fill="#8dd3c7" stroke="transparent" points="371.5 -10 371.5 -30 391.5 -30 391.5 -10 371.5 -10"/><text x="395.225" y="-15.4" fill="#000" font-family="sans-serif" font-size="14" text-anchor="start">Module</text><polygon fill="#80b1d3" stroke="transparent" points="457.5 -10 457.5 -30 477.5 -30 477.5 -10 457.5 -10"/><text x="481.281" y="-15.4" fill="#000" font-family="sans-serif" font-size="14" text-anchor="start">Bootstrap</text><polygon fill="#fdb462" stroke="transparent" points="554.5 -10 554.5 -30 574.5 -30 574.5 -10 554.5 -10"/><text x="578.173" y="-15.4" fill="#000" font-family="sans-serif" font-size="14" text-anchor="start">Providers</text><polygon fill="#fb8072" stroke="transparent" points="650.5 -10 650.5 -30 670.5 -30 670.5 -10 650.5 -10"/><text x="674.226" y="-15.4" fill="#000" font-family="sans-serif" font-size="14" text-anchor="start">Exports</text><g id="clust1" class="cluster"><title>cluster_AppModule</title><polygon fill="none" stroke="#000" stroke-dasharray="1 5" points="186 -214 186 -339 442 -339 442 -214 186 -214"/></g><g id="clust3" class="cluster"><title>cluster_AppModule_imports</title><polygon fill="none" stroke="#000" points="194 -222 194 -274 434 -274 434 -222 194 -222"/></g><g id="clust7" class="cluster"><title>cluster_CryptographyModule</title><polygon fill="none" stroke="#000" stroke-dasharray="1 5" points="757 -70 757 -282 977 -282 977 -70 757 -70"/></g><g id="clust10" class="cluster"><title>cluster_CryptographyModule_exports</title><polygon fill="none" stroke="#000" points="789 -222 789 -274 945 -274 945 -222 789 -222"/></g><g id="clust12" class="cluster"><title>cluster_CryptographyModule_providers</title><polygon fill="none" stroke="#000" points="765 -78 765 -130 969 -130 969 -78 765 -78"/></g><g id="clust13" class="cluster"><title>cluster_IpfsModule</title><polygon fill="none" stroke="#000" stroke-dasharray="1 5" points="8 -70 8 -282 150 -282 150 -70 8 -70"/></g><g id="clust16" class="cluster"><title>cluster_IpfsModule_exports</title><polygon fill="none" stroke="#000" points="35 -222 35 -274 135 -274 135 -222 35 -222"/></g><g id="clust18" class="cluster"><title>cluster_IpfsModule_providers</title><polygon fill="none" stroke="#000" points="16 -78 16 -130 142 -130 142 -78 16 -78"/></g><g id="clust19" class="cluster"><title>cluster_MessagesModule</title><polygon fill="none" stroke="#000" stroke-dasharray="1 5" points="322 -138 322 -206 626 -206 626 -138 322 -138"/></g><g id="clust21" class="cluster"><title>cluster_MessagesModule_imports</title><polygon fill="none" stroke="#000" points="510 -146 510 -198 618 -198 618 -146 510 -146"/></g><g id="clust24" class="cluster"><title>cluster_MessagesModule_providers</title><polygon fill="none" stroke="#000" points="330 -146 330 -198 502 -198 502 -146 330 -146"/></g><g id="clust25" class="cluster"><title>cluster_UsersModule</title><polygon fill="none" stroke="#000" stroke-dasharray="1 5" points="158 -138 158 -206 314 -206 314 -138 158 -138"/></g><g id="clust30" class="cluster"><title>cluster_UsersModule_providers</title><polygon fill="none" stroke="#000" points="166 -146 166 -198 306 -198 306 -146 166 -146"/></g><g id="clust31" class="cluster"><title>cluster_Web3Module</title><polygon fill="none" stroke="#000" stroke-dasharray="1 5" points="473 -214 473 -282 749 -282 749 -214 473 -214"/></g><g id="clust34" class="cluster"><title>cluster_Web3Module_exports</title><polygon fill="none" stroke="#000" points="631 -222 631 -274 741 -274 741 -222 631 -222"/></g><g id="clust36" class="cluster"><title>cluster_Web3Module_providers</title><polygon fill="none" stroke="#000" points="481 -222 481 -274 623 -274 623 -222 481 -222"/></g><g id="node1" class="node"><title>MessagesModule</title><polygon fill="#8dd3c7" stroke="#000" points="425.972 -266 422.972 -270 401.972 -270 398.972 -266 312.028 -266 312.028 -230 425.972 -230 425.972 -266"/><text x="369" y="-243.8" fill="#000" font-family="Times,serif" font-size="14" text-anchor="middle">MessagesModule</text></g><g id="node3" class="node"><title>AppModule</title><polygon fill="#8dd3c7" stroke="#000" points="349.657 -331 346.657 -335 325.657 -335 322.657 -331 266.343 -331 266.343 -295 349.657 -295 349.657 -331"/><text x="308" y="-308.8" fill="#000" font-family="Times,serif" font-size="14" text-anchor="middle">AppModule</text></g><g id="edge1" class="edge"><title>MessagesModule-&gt;AppModule</title><path fill="none" stroke="#000" d="M330.9211,-266.1061C330.9211,-266.1061 330.9211,-284.991 330.9211,-284.991"/><polygon fill="#000" stroke="#000" points="327.421 -284.991 330.921 -294.991 334.421 -284.991 327.421 -284.991"/></g><g id="node2" class="node"><title>UsersModule</title><polygon fill="#8dd3c7" stroke="#000" points="293.922 -266 290.922 -270 269.922 -270 266.922 -266 202.078 -266 202.078 -230 293.922 -230 293.922 -266"/><text x="248" y="-243.8" fill="#000" font-family="Times,serif" font-size="14" text-anchor="middle">UsersModule</text></g><g id="edge2" class="edge"><title>UsersModule-&gt;AppModule</title><path fill="none" stroke="#000" d="M279.9411,-266.1061C279.9411,-266.1061 279.9411,-284.991 279.9411,-284.991"/><polygon fill="#000" stroke="#000" points="276.441 -284.991 279.941 -294.991 283.441 -284.991 276.441 -284.991"/></g><g id="node4" class="node"><title>CryptographyService</title><polygon fill="#fb8072" stroke="#000" points="936.741 -266 797.259 -266 797.259 -230 936.741 -230 936.741 -266"/><text x="867" y="-243.8" fill="#000" font-family="Times,serif" font-size="14" text-anchor="middle">CryptographyService</text></g><g id="node5" class="node"><title>CryptographyModule</title><polygon fill="#8dd3c7" stroke="#000" points="935.813 -190 932.813 -194 911.813 -194 908.813 -190 798.187 -190 798.187 -154 935.813 -154 935.813 -190"/><text x="867" y="-167.8" fill="#000" font-family="Times,serif" font-size="14" text-anchor="middle">CryptographyModule</text></g><g id="edge3" class="edge"><title>CryptographyModule-&gt;CryptographyService</title><path fill="none" stroke="#000" stroke-dasharray="5 2" d="M867,-190.0109C867,-190.0109 867,-219.855 867,-219.855"/><polygon fill="#000" stroke="#000" points="863.5 -219.855 867 -229.855 870.5 -219.855 863.5 -219.855"/></g><g id="node6" class="node"><title>CryptographyService</title><ellipse cx="867" cy="-104" fill="#fdb462" stroke="#000" rx="93.763" ry="18"/><text x="867" y="-99.8" fill="#000" font-family="Times,serif" font-size="14" text-anchor="middle">CryptographyService</text></g><g id="edge4" class="edge"><title>CryptographyService-&gt;CryptographyModule</title><path fill="none" stroke="#000" d="M867,-122.2228C867,-122.2228 867,-143.7269 867,-143.7269"/><polygon fill="#000" stroke="#000" points="863.5 -143.727 867 -153.727 870.5 -143.727 863.5 -143.727"/></g><g id="node7" class="node"><title>IpfsService</title><polygon fill="#fb8072" stroke="#000" points="126.744 -266 43.256 -266 43.256 -230 126.744 -230 126.744 -266"/><text x="85" y="-243.8" fill="#000" font-family="Times,serif" font-size="14" text-anchor="middle">IpfsService</text></g><g id="node8" class="node"><title>IpfsModule</title><polygon fill="#8dd3c7" stroke="#000" points="125.816 -190 122.816 -194 101.816 -194 98.816 -190 44.184 -190 44.184 -154 125.816 -154 125.816 -190"/><text x="85" y="-167.8" fill="#000" font-family="Times,serif" font-size="14" text-anchor="middle">IpfsModule</text></g><g id="edge7" class="edge"><title>IpfsModule-&gt;MessagesModule</title><path fill="none" stroke="#000" d="M98.5526,-190.2434C98.5526,-197.4297 98.5526,-204 98.5526,-204 98.5526,-204 325.2413,-204 325.2413,-204 325.2413,-204 325.2413,-219.8495 325.2413,-219.8495"/><polygon fill="#000" stroke="#000" points="321.741 -219.849 325.241 -229.85 328.741 -219.85 321.741 -219.849"/></g><g id="edge5" class="edge"><title>IpfsModule-&gt;IpfsService</title><path fill="none" stroke="#000" stroke-dasharray="5 2" d="M71.4474,-190.0109C71.4474,-190.0109 71.4474,-219.855 71.4474,-219.855"/><polygon fill="#000" stroke="#000" points="67.948 -219.855 71.447 -229.855 74.948 -219.855 67.948 -219.855"/></g><g id="node9" class="node"><title>IpfsService</title><ellipse cx="79" cy="-104" fill="#fdb462" stroke="#000" rx="55.011" ry="18"/><text x="79" y="-99.8" fill="#000" font-family="Times,serif" font-size="14" text-anchor="middle">IpfsService</text></g><g id="edge6" class="edge"><title>IpfsService-&gt;IpfsModule</title><path fill="none" stroke="#000" d="M85,-122.2228C85,-122.2228 85,-143.7269 85,-143.7269"/><polygon fill="#000" stroke="#000" points="81.5 -143.727 85 -153.727 88.5 -143.727 81.5 -143.727"/></g><g id="node10" class="node"><title>Web3Module</title><polygon fill="#8dd3c7" stroke="#000" points="610.479 -190 607.479 -194 586.479 -194 583.479 -190 517.521 -190 517.521 -154 610.479 -154 610.479 -190"/><text x="564" y="-167.8" fill="#000" font-family="Times,serif" font-size="14" text-anchor="middle">Web3Module</text></g><g id="edge8" class="edge"><title>Web3Module-&gt;MessagesModule</title><path fill="none" stroke="#000" d="M548.5035,-190.0439C548.5035,-202.5633 548.5035,-217 548.5035,-217 548.5035,-217 396.8136,-217 396.8136,-217 396.8136,-217 396.8136,-219.9672 396.8136,-219.9672"/><polygon fill="#000" stroke="#000" points="393.314 -219.967 396.814 -229.967 400.314 -219.967 393.314 -219.967"/></g><g id="node13" class="node"><title>Web3Service</title><polygon fill="#fb8072" stroke="#000" points="733.407 -266 638.593 -266 638.593 -230 733.407 -230 733.407 -266"/><text x="686" y="-243.8" fill="#000" font-family="Times,serif" font-size="14" text-anchor="middle">Web3Service</text></g><g id="edge11" class="edge"><title>Web3Module-&gt;Web3Service</title><path fill="none" stroke="#000" stroke-dasharray="5 2" d="M610.8195,-172C645.2241,-172 686,-172 686,-172 686,-172 686,-219.9891 686,-219.9891"/><polygon fill="#000" stroke="#000" points="682.5 -219.989 686 -229.989 689.5 -219.989 682.5 -219.989"/></g><g id="node11" class="node"><title>MessagesService</title><ellipse cx="416" cy="-172" fill="#fdb462" stroke="#000" rx="77.563" ry="18"/><text x="416" y="-167.8" fill="#000" font-family="Times,serif" font-size="14" text-anchor="middle">MessagesService</text></g><g id="edge9" class="edge"><title>MessagesService-&gt;MessagesModule</title><path fill="none" stroke="#000" d="M367.6411,-186.295C367.6411,-186.295 367.6411,-219.7342 367.6411,-219.7342"/><polygon fill="#000" stroke="#000" points="364.141 -219.734 367.641 -229.734 371.141 -219.734 364.141 -219.734"/></g><g id="node12" class="node"><title>UsersService</title><ellipse cx="236" cy="-172" fill="#fdb462" stroke="#000" rx="61.952" ry="18"/><text x="236" y="-167.8" fill="#000" font-family="Times,serif" font-size="14" text-anchor="middle">UsersService</text></g><g id="edge10" class="edge"><title>UsersService-&gt;UsersModule</title><path fill="none" stroke="#000" d="M248,-190.0109C248,-190.0109 248,-219.855 248,-219.855"/><polygon fill="#000" stroke="#000" points="244.5 -219.855 248 -229.855 251.5 -219.855 244.5 -219.855"/></g><g id="node14" class="node"><title>Web3Service</title><ellipse cx="552" cy="-248" fill="#fdb462" stroke="#000" rx="63.102" ry="18"/><text x="552" y="-243.8" fill="#000" font-family="Times,serif" font-size="14" text-anchor="middle">Web3Service</text></g><g id="edge12" class="edge"><title>Web3Service-&gt;Web3Module</title><path fill="none" stroke="#000" d="M579.4965,-231.5091C579.4965,-231.5091 579.4965,-200.0531 579.4965,-200.0531"/><polygon fill="#000" stroke="#000" points="582.997 -200.053 579.496 -190.053 575.997 -200.053 582.997 -200.053"/></g></g></svg>